<svg xmlns="http://www.w3.org/2000/svg" width="15.785" height="13" viewBox="0 0 15.785 13"><defs><style>.a{fill:#1a2438;}</style></defs><path class="a" d="M14.163,51.322c.01.144.01.284.01.427a9.21,9.21,0,0,1-9.2,9.334A9.051,9.051,0,0,1,0,59.609a6.6,6.6,0,0,0,.781.041,6.423,6.423,0,0,0,4.016-1.4,3.247,3.247,0,0,1-3.024-2.275,4.026,4.026,0,0,0,.611.051,3.377,3.377,0,0,0,.851-.112,3.27,3.27,0,0,1-2.6-3.22v-.041a3.224,3.224,0,0,0,1.462.417,3.316,3.316,0,0,1-1-4.387,9.155,9.155,0,0,0,6.671,3.433,3.753,3.753,0,0,1-.08-.752,3.257,3.257,0,0,1,3.235-3.281,3.207,3.207,0,0,1,2.364,1.036,6.316,6.316,0,0,0,2.053-.792,3.264,3.264,0,0,1-1.422,1.808,6.415,6.415,0,0,0,1.862-.509,7.008,7.008,0,0,1-1.623,1.7Z" transform="translate(0 -48.082)"/></svg>